<svg width="32" height="32" viewBox="0 0 32 32" fill="none" xmlns="http://www.w3.org/2000/svg">
<path d="M20.0013 30.3334H12.0013C4.7613 30.3334 1.66797 27.2401 1.66797 20.0001V12.0001C1.66797 4.76008 4.7613 1.66675 12.0013 1.66675H20.0013C27.2413 1.66675 30.3346 4.76008 30.3346 12.0001V20.0001C30.3346 27.2401 27.2413 30.3334 20.0013 30.3334ZM12.0013 3.66675C5.85463 3.66675 3.66797 5.85341 3.66797 12.0001V20.0001C3.66797 26.1467 5.85463 28.3334 12.0013 28.3334H20.0013C26.148 28.3334 28.3346 26.1467 28.3346 20.0001V12.0001C28.3346 5.85341 26.148 3.66675 20.0013 3.66675H12.0013Z" fill="white"/>
<path d="M8.00084 25.0013C7.74751 25.0013 7.49418 24.908 7.29418 24.708C7.1082 24.5198 7.00391 24.2659 7.00391 24.0013C7.00391 23.7367 7.1082 23.4828 7.29418 23.2946L23.2942 7.29464C23.6808 6.90797 24.3208 6.90797 24.7075 7.29464C25.0942 7.68131 25.0942 8.32131 24.7075 8.70797L8.70751 24.708C8.50751 24.908 8.25418 25.0013 8.00084 25.0013Z" fill="white"/>
<path d="M24 14.3333C23.4533 14.3333 23 13.88 23 13.3333V9H18.6667C18.12 9 17.6667 8.54667 17.6667 8C17.6667 7.45333 18.12 7 18.6667 7H24C24.5467 7 25 7.45333 25 8V13.3333C25 13.88 24.5467 14.3333 24 14.3333ZM13.3333 25H8C7.45333 25 7 24.5467 7 24V18.6667C7 18.12 7.45333 17.6667 8 17.6667C8.54667 17.6667 9 18.12 9 18.6667V23H13.3333C13.88 23 14.3333 23.4533 14.3333 24C14.3333 24.5467 13.88 25 13.3333 25ZM24.0013 25.0013C23.748 25.0013 23.4947 24.908 23.2947 24.708L7.29467 8.708C7.10869 8.51982 7.0044 8.26591 7.0044 8.00133C7.0044 7.73676 7.10869 7.48285 7.29467 7.29467C7.68133 6.908 8.32133 6.908 8.708 7.29467L24.708 23.2947C25.0947 23.6813 25.0947 24.3213 24.708 24.708C24.508 24.908 24.2547 25.0013 24.0013 25.0013Z" fill="white"/>
<path d="M8 14.3333C7.45333 14.3333 7 13.88 7 13.3333V8C7 7.45333 7.45333 7 8 7H13.3333C13.88 7 14.3333 7.45333 14.3333 8C14.3333 8.54667 13.88 9 13.3333 9H9V13.3333C9 13.88 8.54667 14.3333 8 14.3333ZM24 25H18.6667C18.12 25 17.6667 24.5467 17.6667 24C17.6667 23.4533 18.12 23 18.6667 23H23V18.6667C23 18.12 23.4533 17.6667 24 17.6667C24.5467 17.6667 25 18.12 25 18.6667V24C25 24.5467 24.5467 25 24 25Z" fill="white"/>
</svg>
