<svg width="22" height="22" viewBox="0 0 22 22" fill="none" xmlns="http://www.w3.org/2000/svg">
<g clip-path="url(#clip0_1401_292)">
<path d="M10.9999 1.83331C13.2928 4.34347 14.5958 7.60101 14.6666 11C14.5958 14.3989 13.2928 17.6565 10.9999 20.1666M10.9999 1.83331C8.70708 4.34347 7.40406 7.60101 7.33325 11C7.40406 14.3989 8.70708 17.6565 10.9999 20.1666M10.9999 1.83331C5.93731 1.83331 1.83325 5.93737 1.83325 11C1.83325 16.0626 5.93731 20.1666 10.9999 20.1666M10.9999 1.83331C16.0625 1.83331 20.1666 5.93737 20.1666 11C20.1666 16.0626 16.0625 20.1666 10.9999 20.1666M2.2916 8.24998H19.7083M2.29159 13.75H19.7083" stroke="#101828" stroke-width="2" stroke-linecap="round" stroke-linejoin="round"/>
</g>
<defs>
<clipPath id="clip0_1401_292">
<rect width="22" height="22" fill="white"/>
</clipPath>
</defs>
</svg>
