<svg width="32" height="33" viewBox="0 0 32 33" fill="none" xmlns="http://www.w3.org/2000/svg">
<path d="M10.879 19.2879C10.7618 19.4051 10.5719 19.4051 10.4547 19.2879L6.84563 15.6788C6.65664 15.4899 6.79049 15.1667 7.05776 15.1667H9.3335C9.66683 7.68671 12.5202 1.83337 16.0002 1.83337C18.6668 1.83337 21.0268 5.35337 22.0668 10.4334C27.1468 11.4734 30.6668 13.8334 30.6668 16.5C30.6668 18.8563 27.9687 20.9266 23.9053 22.1105C23.6985 22.1708 23.5007 21.9962 23.5312 21.7829L23.826 19.7189C23.8428 19.6019 23.927 19.5058 24.0401 19.4718C26.4781 18.74 28.0002 17.6835 28.0002 16.5C28.0002 15.0867 25.8002 13.8334 22.4935 13.1667C22.6002 14.22 22.6668 15.34 22.6668 16.5C22.6668 24.6067 19.6802 31.1667 16.0002 31.1667C13.6439 31.1667 11.5736 28.4686 10.3897 24.4051C10.3294 24.1983 10.504 24.0006 10.7173 24.0311L12.7813 24.3259C12.8983 24.3426 12.9944 24.4268 13.0284 24.54C13.7602 26.978 14.8167 28.5 16.0002 28.5C18.2135 28.5 20.0002 23.1267 20.0002 16.5C20.0002 15.1667 19.9335 13.9 19.8002 12.7C18.6002 12.5667 17.3335 12.5 16.0002 12.5L13.8779 12.5685C13.6913 12.5745 13.5446 12.4106 13.5713 12.2258L13.8709 10.149C13.8917 10.005 14.0128 9.89667 14.1583 9.89203L16.0002 9.83337C17.1602 9.83337 18.2802 9.90004 19.3335 10.0067C18.6668 6.70004 17.4135 4.50004 16.0002 4.50004C13.9468 4.50004 12.2402 9.16671 12.0002 15.1667H14.2759C14.5432 15.1667 14.677 15.4899 14.488 15.6788L10.879 19.2879ZM18.788 21.6212C18.9052 21.7384 18.9052 21.9284 18.788 22.0455L15.179 25.6546C14.99 25.8436 14.6668 25.7097 14.6668 25.4424V23.1667C7.18683 22.8334 1.3335 19.98 1.3335 16.5C1.3335 14.1438 4.03161 12.0735 8.09507 10.8896C8.30186 10.8293 8.49961 11.0039 8.46915 11.2172L8.17428 13.2812C8.15758 13.3982 8.07336 13.4943 7.96023 13.5282C5.52225 14.26 4.00016 15.3166 4.00016 16.5C4.00016 18.5534 8.66683 20.26 14.6668 20.5V18.2243C14.6668 17.957 14.99 17.8232 15.179 18.0122L18.788 21.6212Z" fill="#FFFFFF"/>
</svg>
