<svg width="32" height="32" viewBox="0 0 32 32" fill="none" xmlns="http://www.w3.org/2000/svg">
<path d="M10.6654 18.9999L6.33203 14.6666H9.33203C9.66536 7.18659 12.5187 1.33325 15.9987 1.33325C18.6654 1.33325 21.0254 4.85325 22.0654 9.93325C27.1454 10.9733 30.6654 13.3333 30.6654 15.9999C30.6654 18.4399 27.772 20.5733 23.4654 21.7333L23.852 19.0266C26.3987 18.2933 27.9987 17.2133 27.9987 15.9999C27.9987 14.5866 25.7987 13.3333 22.492 12.6666C22.5987 13.7199 22.6654 14.8399 22.6654 15.9999C22.6654 24.1066 19.6787 30.6666 15.9987 30.6666C13.5587 30.6666 11.4254 27.7733 10.2654 23.4666L12.972 23.8533C13.7054 26.3999 14.7854 27.9999 15.9987 27.9999C18.212 27.9999 19.9987 22.6266 19.9987 15.9999C19.9987 14.6666 19.932 13.3999 19.7987 12.1999C18.5987 12.0666 17.332 11.9999 15.9987 11.9999L13.5187 12.0799L13.9054 9.39992L15.9987 9.33325C17.1587 9.33325 18.2787 9.39992 19.332 9.50659C18.6654 6.19992 17.412 3.99992 15.9987 3.99992C13.9454 3.99992 12.2387 8.66659 11.9987 14.6666H14.9987L10.6654 18.9999ZM18.9987 21.3333L14.6654 25.6666V22.6666C7.18537 22.3333 1.33203 19.4799 1.33203 15.9999C1.33203 13.5599 4.22537 11.4266 8.53203 10.2666L8.14537 12.9733C5.5987 13.7066 3.9987 14.7866 3.9987 15.9999C3.9987 18.0533 8.66537 19.7599 14.6654 19.9999V16.9999L18.9987 21.3333Z" fill="white"/>
</svg>
