<svg width="32" height="32" viewBox="0 0 32 32" fill="none" xmlns="http://www.w3.org/2000/svg">
<path d="M8.93359 12.3467L16.0003 16.44L23.0136 12.3733M16.0003 23.6933V16.4267" stroke="#005d2e" stroke-width="1.5" stroke-linecap="round" stroke-linejoin="round"/>
<path d="M29.3346 20.0001C29.3346 25.1601 25.1613 29.3334 20.0013 29.3334L21.4013 27.0001M2.66797 12.0001C2.66797 6.84008 6.8413 2.66675 12.0013 2.66675L10.6013 5.00008M14.348 8.38675L10.0813 10.7601C9.1213 11.2934 8.3213 12.6401 8.3213 13.7467V18.2667C8.3213 19.3734 9.10797 20.7201 10.0813 21.2534L14.348 23.6267C15.2546 24.1334 16.748 24.1334 17.668 23.6267L21.9346 21.2534C22.8946 20.7201 23.6946 19.3734 23.6946 18.2667V13.7334C23.6946 12.6267 22.908 11.2801 21.9346 10.7467L17.668 8.37341C16.748 7.86675 15.2546 7.86675 14.348 8.38675Z" stroke="#005d2e" stroke-width="2.5" stroke-linecap="round" stroke-linejoin="round"/>
</svg>
